PathFileType	4	(X/Y/Z)	C:\Users\WrightLab\Desktop\Jo\P5V122.trc
DataRate	CameraRate	NumFrames	NumMarkers	Units	OrigDataRate	OrigDataStartFrame	OrigNumFrames
100.00	100.00	       17	19	mm	100.00	72	       569
Frame#	Time	Headset_Front			Headset_Back			Headset_Left			Headset_Right			Left_Shoulder			Right_Shoulder			Sternum			C7			Left Elbow			Right Elbow			Left Wrist			Right Wrist			Left ASIS			Right ASIS			S2			Left Knee			Right Knee			Left Ankle			Right Ankle			
		X1	Y1	Z1	X2	Y2	Z2	X3	Y3	Z3	X4	Y4	Z4	X5	Y5	Z5	X6	Y6	Z6	X7	Y7	Z7	X8	Y8	Z8	X9	Y9	Z9	X10	Y10	Z10	X11	Y11	Z11	X12	Y12	Z12	X13	Y13	Z13	X14	Y14	Z14	X15	Y15	Z15	X16	Y16	Z16	X17	Y17	Z17	X18	Y18	Z18	X19	Y19	Z19	

72	0.710	-421.75217	1590.48853	-913.89539	-311.23734	1491.73438	-1192.68054							-251.09373	940.02380	-1270.64221				-313.42096	1294.99658	-982.93317				-17.47373	1165.40442	-1074.47266	-574.32159	1141.24146	-1119.41016	-1.76610	923.25885	-1006.87854	-570.48450	888.81940	-1028.63708	-170.09801	899.45050	-976.99579	-439.98105	918.97217	-1000.74207				-122.40723	467.76788	-1089.22632	-491.52951	489.82071	-941.82159	-96.45631	69.54562	-1271.71313				
73	0.720	-426.82068	1589.97754	-909.57574	-316.23996	1491.11304	-1188.20703							-255.97495	939.76544	-1266.63208				-317.49460	1294.05566	-978.00098				-22.17049	1164.94824	-1070.31677	-579.25067	1140.83093	-1115.28125	-6.88683	922.49670	-1002.52917	-574.94189	888.02716	-1024.67041	-175.95653	899.66193	-971.71631	-444.94681	918.32770	-995.75006				-127.66990	466.28275	-1084.38159	-494.89441	488.91241	-939.56989	-96.45631	69.54562	-1271.71313				
74	0.730	-431.74942	1590.00623	-904.94025	-321.30386	1490.77588	-1184.36951							-260.86810	938.87244	-1260.99744				-323.74744	1293.27332	-973.57001				-26.97009	1163.99854	-1064.63892	-584.06268	1140.31494	-1111.25806	-10.92834	922.41760	-998.62860	-579.77954	888.05328	-1020.44574	-181.25731	899.08221	-965.97113	-451.97656	919.36078	-991.47699				-133.55995	465.78659	-1078.19714	-498.18402	487.73077	-937.03052	-97.70509	69.34015	-1274.69751				
75	0.740	-436.86667	1589.56860	-899.90253	-326.36182	1490.28967	-1179.36646							-266.11713	937.61572	-1255.43164				-329.86115	1293.76331	-969.22925				-32.47488	1164.89783	-1063.81006	-588.93530	1139.37622	-1106.57861	-14.72355	922.37701	-995.51849	-584.60846	886.87421	-1015.51208	-186.77570	898.64160	-959.74225	-456.68692	917.91296	-985.94281				-139.90234	464.45462	-1073.61694	-501.10681	486.15833	-933.22070	-96.59733	71.72511	-1268.69348				
76	0.750	-441.90985	1590.02869	-895.27600	-331.51498	1489.76538	-1174.49805							-271.77032	937.87048	-1251.89832				-335.75900	1294.04138	-964.54016				-37.37894	1165.20935	-1060.67029	-593.94727	1139.45581	-1102.18188	-19.12752	922.22113	-991.08405	-589.19434	886.49036	-1011.31592	-193.64461	898.71533	-954.03082	-463.09726	917.90802	-981.16187				-146.21086	464.17639	-1068.31396	-503.88574	486.53796	-929.87964							
77	0.760	-446.84314	1590.27002	-890.28680	-336.55710	1489.85925	-1169.89063							-277.40988	937.07922	-1246.60986				-340.90231	1292.64307	-959.15063				-42.07147	1163.79187	-1052.74133	-599.62952	1139.12634	-1097.34705	-23.50923	922.35162	-987.74561	-593.77368	886.69592	-1006.55609	-199.09447	898.45038	-948.29327	-468.79556	918.38275	-976.50592				-152.59987	463.41873	-1062.98792	-508.77985	485.67432	-925.58990	-98.29576	73.24179	-1270.85046				
78	0.770	-451.69595	1590.40247	-884.54651	-341.72412	1489.45166	-1165.21606							-283.19461	936.70685	-1241.83337				-346.26520	1293.53247	-954.17657				-47.96472	1164.29431	-1049.89600	-604.21881	1138.90625	-1092.44641	-27.75665	923.16992	-983.23920	-598.92871	886.47626	-1001.01788	-206.49222	898.57953	-941.71399	-474.42941	917.74017	-971.47369				-161.43080	461.90720	-1058.52075	-512.49634	486.88763	-923.64868	-101.04941	72.03758	-1272.11328				
79	0.780	-456.44217	1590.84192	-879.01569	-346.65668	1489.36218	-1160.11304							-288.77689	937.69977	-1237.91992				-353.06317	1293.99756	-949.94690				-52.90745	1164.67664	-1046.48767	-609.42889	1139.27576	-1087.94055	-33.18711	923.11090	-978.84320	-603.62933	886.10980	-996.75049	-213.12547	898.48303	-935.68494	-480.96017	918.54950	-966.99408				-169.37186	460.46573	-1053.32751	-517.54694	486.38382	-919.62347	-103.21507	71.11221	-1274.18970				
80	0.790	-461.25909	1591.06702	-874.33844	-351.83417	1489.14673	-1155.85132							-294.77332	936.84576	-1232.47778				-358.84677	1293.72852	-944.82709				-58.58051	1165.75586	-1044.89063	-614.28192	1138.49951	-1082.88745	-36.77422	923.08313	-975.00507	-608.59674	886.42230	-992.65668	-218.09935	899.67200	-927.82568	-487.74512	918.73108	-961.37860				-176.12645	460.38989	-1048.10767	-521.11389	486.44086	-917.37622	-103.99352	74.96360	-1273.74597				
81	0.800	-465.93759	1590.84351	-869.26001	-356.87787	1489.00085	-1150.85999							-300.73721	936.75812	-1227.83032				-364.40469	1293.41357	-939.52850							-619.86731	1138.65137	-1077.97437	-41.82050	923.09949	-970.35974	-614.07135	885.95569	-987.08026	-225.54060	899.69537	-922.64069	-494.23743	918.34094	-956.70300				-183.50882	461.12897	-1040.42798	-525.95361	485.98795	-917.11871	-102.15111	79.61887	-1268.54602				
82	0.810	-470.27780	1591.21826	-863.56299	-361.98267	1488.68872	-1145.98181							-306.91852	936.45929	-1223.53247				-369.21228	1293.80444	-934.97858							-625.03894	1139.40796	-1073.69543	-46.38614	923.36926	-966.01337	-618.32104	886.29999	-981.99866	-232.11316	899.28052	-916.42926	-499.40482	919.08075	-952.44232				-187.44003	461.91626	-1031.53882	-532.69897	486.85925	-915.50708	-104.10267	81.07408	-1268.78992				
83	0.820	-474.74811	1591.00732	-858.20233	-366.92386	1488.57324	-1140.54187							-313.13184	936.09137	-1218.74170				-375.41965	1293.15515	-929.37842				-72.30589	1164.88782	-1030.14575	-630.44128	1139.02771	-1068.71936	-50.66423	922.89642	-961.62433	-623.83716	886.55316	-977.38678	-240.45900	898.63837	-911.69580	-505.63248	920.05377	-947.75177				-190.65930	458.94440	-1021.55511	-538.54095	486.61240	-915.36993	-106.45057	81.16962	-1268.39368				
84	0.830	-478.90826	1591.13623	-852.89740	-372.07709	1488.62634	-1136.68823							-319.12341	936.43298	-1214.08276				-380.58618	1293.64612	-923.80487				-76.92226	1163.56238	-1021.92651	-635.71515	1138.33960	-1063.66333	-56.40720	922.88782	-956.33698	-628.14386	886.08960	-972.46692	-246.48759	899.56177	-907.46045	-511.40808	919.03265	-943.44653				-193.30246	458.24045	-1011.62341	-543.33466	486.04007	-915.54968	-106.39311	86.88902	-1263.67810				
85	0.840	-482.97626	1591.36035	-847.19592	-376.96707	1488.89612	-1131.66345							-325.03967	936.53333	-1208.91016				-385.88205	1294.40430	-919.50305				-68.37644	1185.32715	-954.64520	-641.49164	1139.04456	-1059.19812	-60.07217	923.91089	-952.50354	-633.00000	886.75079	-967.41302	-252.25745	899.90100	-900.03326	-517.39349	919.06708	-938.62115				-196.13182	456.84818	-1001.10547	-548.72534	486.18253	-916.88867	-108.21826	91.77317	-1261.23340				
86	0.850	-486.75446	1591.40967	-841.11420	-381.99622	1488.86316	-1127.10986													-390.24658	1294.41150	-914.02600							-646.55200	1139.32214	-1054.15674	-65.23642	923.83759	-948.03101	-638.42371	887.29645	-962.25500	-258.31522	899.48999	-895.08228	-523.92236	920.64587	-934.51373	-72.66868	1185.69946	-948.60132	-199.37367	456.32291	-989.18719	-551.92480	485.04770	-918.18896	-108.34113	95.37895	-1259.58838				
87	0.860	-490.60208	1591.41296	-835.61224	-386.76703	1489.61121	-1122.63354							-336.68692	937.53149	-1199.48694	-586.81543	1425.42456	-1008.29718	-395.60831	1294.59778	-909.49335							-652.19171	1139.71167	-1049.57019	-69.42019	924.30933	-943.28815	-642.96979	887.12122	-956.99518	-264.93066	899.73651	-889.29303	-530.29706	920.95789	-929.35425	-93.93518	1167.13989	-1018.40967	-203.23106	456.55124	-976.49200	-556.38525	484.13937	-919.59052	-112.18620	102.12901	-1256.93469				
88	0.870	-494.13358	1591.73328	-829.59851	-391.36661	1490.18079	-1117.48596							-342.12711	938.32190	-1194.35583				-400.57281	1295.75635	-903.83783							-656.65356	1140.02136	-1043.48059	-74.37341	924.77850	-938.36920	-647.80524	887.66449	-952.44855	-271.70200	899.94440	-885.84967	-536.53857	921.55414	-923.95142	-96.96103	1165.88025	-1006.97003	-207.71432	456.74429	-963.02545	-562.76703	484.08249	-920.80511	-113.89378	107.90955	-1251.13062				
